<?xml version="1.0" encoding="UTF-8"?>
<svg id="Layer_2" data-name="Layer 2" xmlns="http://www.w3.org/2000/svg" viewBox="0 0 834.86 173.09">
  <defs>
    <style>
      .cls-1 {
        fill: #f95068;
      }
    </style>
  </defs>
  <g id="Capa_1" data-name="Capa 1">
    <g>
      <path class="cls-1" d="M375.66.61c-19.43,0-36.85,8.51-48.75,22.02,0,0-.02,0-.04.04-.22.34-1.71,2.65-4.29,5.4-4.29,4.58-11.6,10.4-20.95,10.4s-16.72-5.84-21.01-10.44c-2.53-2.71-4.01-4.98-4.23-5.36h-.02s-.02-.04-.02-.04h-.02c-11.9-13.51-29.34-22.02-48.77-22.02-35.9,0-65,29.12-65,65.02s29.1,65.02,65,65.02c19.43,0,36.87-8.51,48.77-22.01h.02s.02-.04.02-.04c0-.02.02-.02.02-.02.22-.36,1.71-2.65,4.23-5.36,4.29-4.58,11.62-10.42,21.01-10.42s16.66,5.82,20.95,10.38c0,.02.02.02.02.02,2.57,2.75,4.05,5.04,4.27,5.4l.04.04c11.9,13.51,29.32,22.01,48.75,22.01,35.9,0,65.02-29.12,65.02-65.02S411.56.61,375.66.61ZM375.66,111.58c-5.72,0-11.2-1.04-16.26-2.95l-.02-.02s-.04,0-.06-.02c-.02,0-.04-.02-.08-.02-1.1-.34-7.08-2.47-13.61-8.15-.28-.24-.58-.48-.86-.76-.26-.24-.54-.5-.82-.76t-.02-.02c-.26-.24-.52-.48-.76-.74v-.02c-.52-.5-1.02-1.04-1.55-1.59-.24-.28-.5-.58-.76-.88-.06-.06-.12-.12-.18-.2-6.3-7.22-13.61-17.72-29.4-20.81-2.91-.56-6.12-.88-9.65-.88s-6.74.32-9.67.92c-14.13,2.85-21.93,11.7-27.53,18.42l-.1.1c-.98,1.32-2.03,2.57-3.15,3.77-.14.14-.3.3-.42.46l-.08.06c-.2.22-.4.44-.58.64-1.89,1.95-3.93,3.59-5.9,4.98-.32.22-.62.42-.92.62-.48.32-.94.62-1.38.88-1.2.76-2.43,1.46-3.69,2.07-.34.2-.7.38-1.04.52-.18.08-.34.16-.5.24-.14.08-.28.14-.44.2-.14.06-.3.14-.42.18-.2.1-.4.18-.58.26-.16.06-.32.12-.46.18-.2.08-.36.16-.5.2-.12.06-.22.1-.3.12-.06.02-.1.04-.1.04-5.06,1.91-10.54,2.95-16.28,2.95-25.37,0-45.96-20.59-45.96-45.96s20.59-45.96,45.96-45.96c5.74,0,11.22,1.04,16.28,2.95,0,0,.04.02.14.04.02.02.06.02.1.04.08.04.18.08.3.12.08.02.16.06.26.1.3.12.68.3,1.14.48.4.18.84.38,1.36.62.34.16.7.34,1.04.52,1.26.62,2.49,1.3,3.69,2.07.22.14.44.28.66.42.54.34,1.08.7,1.65,1.1,1.97,1.36,4.01,3.03,5.9,4.98.1.1.2.2.3.32,1.46,1.51,2.83,3.11,4.09,4.8,5.6,6.7,13.39,15.49,27.47,18.34,2.93.58,6.14.92,9.67.92s6.74-.32,9.65-.9c15.69-3.05,23.02-13.45,29.28-20.65.34-.42.7-.82,1.06-1.22.52-.56,1.02-1.1,1.55-1.61.52-.52,1.06-1.04,1.59-1.53.28-.26.56-.5.82-.72,6.36-5.56,12.22-7.73,13.57-8.15.04-.02.08-.04.1-.04.04-.02.06-.02.08-.04.04,0,.06-.02.06-.02h.02c5.06-1.91,10.54-2.95,16.26-2.95,25.41,0,45.96,20.55,45.96,45.96s-20.55,45.96-45.96,45.96Z"/>
      <path class="cls-1" d="M29.2.3H0v172.79h18.96v-44.55h10.23c36.12,0,64.72-28.3,64.72-64.12S65.02.3,29.2.3ZM29.2,109.88h-10.23V18.97h10.23c25.89,0,45.76,19.87,45.76,45.45s-20.77,45.45-45.76,45.45Z"/>
      <path class="cls-1" d="M159.54,18.96h-3.01c-16.25,0-28.6,12.34-28.6,28.6v80.97h-18.96V47.56c0-26.49,20.77-47.56,47.56-47.56h3.01v18.96Z"/>
      <path class="cls-1" d="M518.05,18.96c-25.89,0-46.66,20.17-46.66,46.35s20.77,46.36,46.66,46.36c12.04,0,24.08-4.52,31.91-13.55l13.54,12.34c-12.04,13.25-27.39,19.87-45.45,19.87-35.82,0-65.32-28.9-65.32-65.02S481.62.3,518.05.3c17.16,0,33.71,7.22,45.45,19.57l-13.54,12.94c-8.13-8.73-19.87-13.85-31.91-13.85Z"/>
      <path class="cls-1" d="M681.8,19.57c-10.23-12.94-25.29-19.27-45.45-19.27-36.4,0-65,29.5-65,65.32s28.88,64.72,64.4,64.72c17.76,0,34.02-6.32,46.66-18.96l-13.25-12.94c-8.73,8.73-21.07,13.55-33.41,13.55-22.26,0-38.51-14.75-44.53-35.52h61.09c18.66,0,31.01-6.32,36.42-18.96,5.42-12.64,3.01-25.29-6.92-37.93ZM672.47,48.17c-2.41,6.32-9.03,9.63-20.17,9.63h-61.71c3.63-22.28,23.48-38.83,45.76-38.83,12.64,0,22.58,3.31,29.5,9.93,6.92,6.32,9.33,12.94,6.62,19.27Z"/>
      <path class="cls-1" d="M748.33,24.08l-5.12-3.61c-3.01-2.11-6.02-3.31-9.33-3.31-4.52,0-8.13,1.51-11.14,4.82-2.71,3.01-4.21,6.62-3.91,10.84.3,4.21,2.11,7.53,5.72,9.93l23.48,16.25c10.23,7.22,15.65,16.55,16.56,27.69.9,11.44-2.71,21.37-10.24,30.1-7.83,8.43-17.76,12.94-30.1,12.94-5.12,0-9.93-.6-13.85-1.8-3.91-1.51-8.13-3.61-12.64-6.62l9.33-14.45c6.02,4.52,9.63,6.02,17.16,6.02,6.92,0,12.94-2.41,17.46-6.92,4.51-4.82,6.62-10.53,6.02-16.86-.3-6.62-3.31-12.04-9.03-16.25l-23.78-15.95c-8.13-5.42-12.34-12.94-12.94-21.98-.6-9.03,2.11-17.16,8.43-24.08,6.02-6.92,13.85-10.54,23.48-10.54,6.92,0,13.24,2.11,18.66,6.02l5.12,3.31-9.33,14.45Z"/>
      <path class="cls-1" d="M818.47,24.08l-5.12-3.61c-3.01-2.11-6.02-3.31-9.33-3.31-4.52,0-8.13,1.51-11.14,4.82-2.71,3.01-4.21,6.62-3.91,10.84.3,4.21,2.11,7.53,5.72,9.93l23.48,16.25c10.23,7.22,15.65,16.55,16.56,27.69.9,11.44-2.71,21.37-10.24,30.1-7.83,8.43-17.76,12.94-30.1,12.94-5.12,0-9.93-.6-13.85-1.8-3.91-1.51-8.13-3.61-12.64-6.62l9.33-14.45c6.02,4.52,9.63,6.02,17.16,6.02,6.92,0,12.94-2.41,17.46-6.92,4.51-4.82,6.62-10.53,6.02-16.86-.3-6.62-3.31-12.04-9.03-16.25l-23.78-15.95c-8.13-5.42-12.34-12.94-12.94-21.98-.6-9.03,2.11-17.16,8.43-24.08,6.02-6.92,13.85-10.54,23.48-10.54,6.92,0,13.24,2.11,18.66,6.02l5.12,3.31-9.33,14.45Z"/>
    </g>
  </g>
</svg>