<?xml version="1.0" encoding="UTF-8"?>
<svg id="Layer_2" data-name="Layer 2" xmlns="http://www.w3.org/2000/svg" viewBox="0 0 404.97 189.34">
  <defs>
    <style>
      .cls-1 {
        fill: #f95068;
      }
    </style>
  </defs>
  <g id="Capa_1" data-name="Capa 1">
    <path class="cls-1" d="M94.67,189.34c28.27,0,53.65-12.39,70.99-32.05h.02s.03-.05.05-.06c0-.02.02-.02.02-.02.33-.54,2.5-3.85,6.19-7.8,6.25-6.67,16.9-15.17,30.57-15.17s24.25,8.46,30.53,15.11c0,.02.03.03.03.03,3.72,3.99,5.9,7.33,6.22,7.84.03.04.05.06.05.06,17.33,19.66,42.71,32.05,70.99,32.05,52.28,0,94.67-42.37,94.67-94.67S362.58,0,310.3,0c-28.28,0-53.66,12.4-70.99,32.05,0,0-.02.02-.05.06-.32.51-2.5,3.87-6.25,7.87-6.28,6.67-16.89,15.13-30.53,15.13s-24.33-8.51-30.57-15.19c-3.69-3.94-5.86-7.26-6.19-7.8,0,0-.02,0-.02-.02-.02-.02-.03-.05-.05-.06h-.02C148.32,12.4,122.94,0,94.67,0,42.37,0,0,42.39,0,94.67s42.37,94.67,94.67,94.67ZM94.67,27.76c8.34,0,16.32,1.52,23.68,4.29,0,0,.06.03.2.08.05.02.11.03.17.06.12.05.27.11.44.18.11.03.23.08.36.14.45.18,1.01.42,1.67.71.59.26,1.25.56,1.99.9.51.24,1.02.48,1.54.75,1.84.9,3.63,1.91,5.36,3.01.33.21.65.41.98.62.78.5,1.58,1.02,2.38,1.6,2.89,2,5.87,4.43,8.6,7.26.15.15.3.3.44.47,2.15,2.18,4.14,4.52,5.98,6.98,8.14,9.77,19.48,22.56,40,26.7,4.28.86,8.94,1.34,14.07,1.34s9.81-.47,14.06-1.29c22.85-4.47,33.51-19.58,42.65-30.09.5-.6,1.01-1.17,1.55-1.76.75-.83,1.49-1.61,2.23-2.35.77-.77,1.55-1.52,2.32-2.21.41-.38.81-.74,1.2-1.07,9.26-8.08,17.79-11.23,19.73-11.86.06-.03.12-.05.17-.06.05-.02.09-.03.12-.05.05-.02.08-.03.09-.03.02-.02.03-.02.03-.02,7.35-2.77,15.34-4.29,23.66-4.29,36.97,0,66.91,29.94,66.91,66.91s-29.94,66.93-66.91,66.93c-8.32,0-16.3-1.52-23.66-4.31,0,0-.01,0-.03-.02-.02,0-.06-.02-.09-.03-.03-.01-.08-.03-.14-.04-1.6-.5-10.3-3.58-19.81-11.86-.41-.35-.83-.71-1.23-1.1-.41-.36-.81-.74-1.22-1.13-.02,0-.03,0-.03-.02-.38-.35-.74-.71-1.11-1.08v-.02c-.75-.74-1.49-1.52-2.23-2.33-.36-.41-.74-.83-1.11-1.26-.09-.09-.18-.2-.26-.3-9.18-10.52-19.82-25.8-42.83-30.3-4.24-.83-8.91-1.29-14.06-1.29s-9.8.48-14.07,1.34c-20.58,4.15-31.93,17.04-40.09,26.82-.03.05-.08.11-.14.17-1.43,1.91-2.95,3.73-4.61,5.48-.21.23-.42.45-.62.68l-.11.11c-.29.32-.57.62-.86.92-2.72,2.83-5.71,5.24-8.6,7.24-.45.33-.89.63-1.32.92-.69.45-1.37.89-2.03,1.29-1.73,1.1-3.52,2.11-5.36,3.01-.51.27-1.02.53-1.54.75-.24.12-.48.23-.71.33-.23.12-.44.21-.66.3-.21.11-.42.2-.62.27-.29.14-.57.26-.83.36-.24.11-.48.2-.69.29-.27.12-.51.21-.71.29s-.35.14-.45.17c-.09.04-.15.06-.15.06-7.36,2.78-15.34,4.31-23.68,4.31-36.96,0-66.93-29.97-66.93-66.93S57.71,27.76,94.67,27.76Z"/>
  </g>
</svg>